<svg xmlns="http://www.w3.org/2000/svg" xmlns:xlink="http://www.w3.org/1999/xlink" xml:space="preserve" viewBox="0 0 1544 500">
  <path fill="#1f374c" d="M0 0h1544v500H0z"/>
  <defs>
    <path id="a" d="M0 0h1544v500H0z"/>
  </defs>
  <clipPath id="b">
    <use xlink:href="#a" style="overflow:visible"/>
  </clipPath>
  <path d="m1747.5-226-11.2 4.7-226.8 444.9 5.8 5.9L1747.5-226zm-52.6 22-11.3 4.7L1482.1 196l5.9 5.9L1694.9-204zm-52.6 22-11.3 4.7-176.2 345.6 5.9 5.9L1642.3-182zm210.5-88.1-11.2 4.7-277.5 544.2 5.9 5.9 282.8-554.8zm-263.2 110.2-11.3 4.7-150.8 295.9 5.8 5.9 156.3-306.5zm210.6-88.2-11.3 4.7-252.1 494.6 5.8 5.9 257.6-505.2zM1264.7-23.9l4.7 4.8 4.3-8.6-9 3.8zm61.7-25.8-11.3 4.7-24.2 47.6 5.8 5.9 29.7-58.2zm579.1-242.5-11.3 4.7-293.6 576.1 10.3-3 294.6-577.8zM1537-137.9l-11.3 4.7-125.5 246.3 5.8 5.9 131-256.9zm-158 66.1-11.2 4.7-49.6 97.3 5.8 5.9 55-107.9zm105.3-44.1-11.2 4.8-100.3 196.6 5.9 5.9 105.6-207.3zm-52.6 22.1-11.3 4.7-74.9 146.9 5.9 5.9 80.3-157.5zm631.7-264.5-11.3 4.7-305.8 600 10.4-3 306.7-601.7zM2211.8-162l-3.2-11.1-170.9 335.2 10.4-3L2211.8-162zm15 51.8-3.2-11.1L2086.3 148l10.4-3 130.1-255.2zm30 103.6-3.2-11.1-70.2 137.6 10.4-3 63-123.5zm-15-51.8-3.2-11.1L2134.9 134l10.4-3 96.5-189.4zm41.8 144.3-3 5.9 4.4-1.2-1.4-4.7zm-325.5-400.1-11.2 4.7-297.8 584 10.4-3 298.6-585.7zm313.7 359.4-3.2-11.1-36.6 71.8 10.4-3 29.4-57.7zM2116-380.3l-11.2 4.7-310 608 10.4-3L2116-380.3zm-105.2 44.1-11.3 4.7-301.8 592 10.4-3 302.7-593.7zm186 122.4-3.2-11.1-204.5 401.1 10.4-3.1 197.3-386.9zm-45-155.5-3.2-11-305.2 598.6 10.4-3 298-584.6zm30 103.6-3.2-11-238 466.9 10.4-3 230.8-452.9zm-15-51.8-3.2-11L1892 204.3l10.4-3 264.4-518.8z" style="clip-path:url(#b);fill:#e18d4c"/>
  <path d="M211 426.6c-6.7-1.7-13.2-4.2-19.8-6.2-1.2-.3-2.3-.8-3.6-1.2-1.2-5.6-2.5-11.4-3.8-17.1-3.1-14-6.1-27.9-9.2-41.9-.1-.4-.3-.7-.4-1.1 0-.4 0-.9-.1-1.3-2.6-11.7-5.2-23.4-7.7-35.1-5.9-26.8-11.7-53.6-17.6-80.4-7.6-34.6-15.1-69.2-22.7-103.8-.1-.6 0-1.6-1.1-1.8l-.6 2.7-8.4 41.7c-5.5 27.4-11 54.8-16.5 82.3-6 29.8-12 59.6-17.9 89.4-1.8 8.8-3.5 17.6-5.2 26.4-3.9-1.1-7.4-2.9-11.4-4.3 17.1-87.3 34.1-174.5 51.2-261.9 5.9-1.9 11.7-4.1 17.7-5.8.1.4.1.9.2 1.3 8.8 36.7 17.6 73.5 26.4 110.2 9.4 39.2 18.8 78.4 28.2 117.7.2.8.1 1.7.9 2.4 1.6-10.8 3.2-21.5 4.8-32.2 2.4-15.3 5-30.5 7.9-45.7l14.4-76.5c3.3-17.7 6.7-35.4 10.1-53.1 3.2-16.6 6.4-33.2 9.6-49.7.8-4 1.5-8 2.4-12.2 5.3-1.9 10.7-3.9 16-5.8 24.4-8.8 48.7-17.7 73.1-26.5.8-.3 1.5-.8 2.4-.6.1 59.7.1 119.4.3 179 .2 68.1.1 136.3.2 204.4 0 16.5.1 32.9.1 49.4-6.4-1.8-12.6-4.4-18.9-6.6-14-5-27.9-10-41.9-15.1-.6-.2-1.2-.5-2.4-1v-39.8c0-.6.1-1.2.1-1.8 0-47-.1-94-.1-141 0-27.1-.2-54.2.6-81.4.2-7.1.5-14.2.7-21.3.1-5 0-10.1 0-15.1.1.8-.1 1.6-.3 2.4-3.2 19.6-6.4 39.1-10.2 58.6-8.4 43.8-18.1 87.4-27.7 131-6.5 29.5-13.2 58.9-19.8 88.4z" style="fill:#24708e"/>
  <path fill="#df8c4b" d="M330.9 469.3c0-16.5-.1-32.9-.1-49.4-.1-68.1 0-136.3-.2-204.4-.2-59.7-.2-119.4-.3-179 5.2 2.6 10 5.8 15 8.8l96 57.9c.6.3 1.1.7 2.1 1.3v297.2c-3 1.9-6.5 4-10 6.1l-100.5 60.6c-.6.3-1.3.6-2 .9zM76.3 379c1.7-8.8 3.5-17.6 5.2-26.4 6-29.8 12-59.6 17.9-89.4 5.5-27.4 11-54.8 16.5-82.3l8.4-41.7.6-2.7c1.1.2.9 1.2 1.1 1.8 7.6 34.6 15.2 69.2 22.7 103.8 5.9 26.8 11.7 53.6 17.6 80.4 2.6 11.7 5.2 23.4 7.7 35.1.1.4.1.9.1 1.3-16.9 3.5-33.8 6.9-50.7 10.4l-46.2 9.6c-.1.3-.5.1-.9.1zm150.5-247.8c-3.4 17.7-6.7 35.4-10.1 53.1-4.8 25.5-9.5 51-14.4 76.5-2.9 15.2-5.6 30.4-7.9 45.7-1.6 10.7-3.2 21.3-4.8 32.2-.8-.7-.7-1.6-.9-2.4-9.4-39.2-18.8-78.4-28.2-117.7-8.8-36.7-17.6-73.5-26.4-110.2-.1-.4-.1-.9-.2-1.3 11.5 3 23 6 34.6 9 19.4 5 38.9 10.1 58.3 15.1zM211 426.6c6.6-29.4 13.3-58.8 19.8-88.3 9.6-43.6 19.3-87.2 27.7-131 3.8-19.5 7-39 10.2-58.6.1-.8.4-1.6.3-2.4 0 5 .1 10.1 0 15.1-.2 7.1-.5 14.2-.7 21.3-.8 27.1-.6 54.2-.6 81.4 0 47 .1 94 .1 141 0 .6 0 1.2-.1 1.8-11.8 4.2-23.5 8.3-35.3 12.5-6.4 2.3-12.7 4.6-19.1 6.8-.7.2-1.4.9-2.3.4z"/>
  <path fill="#24708f" d="M581.8 222.4v-20.5h-23.7l-14 20.5h-12.4l47.7-69.5h12.5v69.5h-10.1zm0-56.3h-.2l-17.1 26.6h17.3v-26.6zm55.7 56.3V189l-23.2 33.4H604v-52h9.8v37.2h.2l25.4-37.2h8v36.3h.2l24.7-36.3h11.6l-35.9 52h-10.5zm84.6-3.5c-3.9 3.1-9.3 4.9-16.2 4.9-14.8 0-25.7-11.6-25.7-27.4 0-16 11.7-27.3 26.1-27.3 10.4 0 19.2 5.4 24.1 14.4l-33.3 28.3c3.1 2.2 6.1 3.2 9.9 3.2 5.7 0 11.3-2.5 15-7v10.9zm-3.7-36.4c-2.9-2.9-7.4-4.6-11.6-4.6-9.3 0-16.7 7.4-16.7 18 0 3.5.3 5.8 1.7 9.3l26.6-22.7zm39.6 1.7c-.5-3.8-2.6-6.3-6.7-6.3-3.8 0-6.1 2.5-6.1 5.5 0 4.4 4.5 5.7 9.7 7.3 7.3 2.3 14.1 6.7 14.1 16.3 0 10.1-7.3 16.6-17.5 16.6-9.4 0-18.4-6.4-18.4-18.4h9.8c.5 6.3 3.7 9.5 8.8 9.5 4.5 0 7.5-2.9 7.5-7.1 0-3.6-2.7-5.9-8.8-7.9-12.8-4-14.9-9.6-14.9-15.5 0-9.2 7.8-15.3 16.3-15.3 8.6 0 15.7 6 16 15.2H758zm43.7 39.5c-14.7 0-27.7-12.5-27.7-27.2 0-15.9 12.5-27.6 28.5-27.6 14.4 0 27.9 11.3 27.7 27.8-.3 14-11.9 27-28.5 27zm.2-45.8c-9.8 0-18.2 8.3-18.2 18.4 0 9.9 8.2 18.5 18 18.5 10.2 0 18.6-8.1 18.6-18.6 0-10.1-8.1-18.3-18.4-18.3zm105.7 44.5v-29.1c0-9.9-4.1-15.4-12.3-15.4-8.6 0-12.4 4.8-12.4 15.2v29.3h-9.8v-30.3c0-10.2-4.8-14.3-11.8-14.3-8.6 0-12.9 5.1-12.9 15.3v29.2h-9.8v-52h9v5.6h.2c4.2-5 8.2-7 14.9-7 6.8 0 13.5 3.3 16.2 8.7 3.8-5.9 8.9-8.7 17.2-8.7 13.5 0 21.2 8.5 21.2 21.9v31.6h-9.7zm60.4-3.5c-3.9 3.1-9.3 4.9-16.2 4.9-14.8 0-25.7-11.6-25.7-27.4 0-16 11.7-27.3 26.1-27.3 10.4 0 19.2 5.4 24.1 14.4L943 211.8c3.1 2.2 6.1 3.2 9.9 3.2 5.7 0 11.3-2.5 15-7v10.9zm-3.8-36.4c-2.9-2.9-7.4-4.6-11.6-4.6-9.3 0-16.7 7.4-16.7 18 0 3.5.3 5.8 1.7 9.3l26.6-22.7z"/>
  <path fill="#f5f2e9" d="m574.3 335.2-48.5-69.5h12.8l37.2 55h.2v-55h10.1v69.5h-11.8zm62.8-3.6c-3.9 3.1-9.3 4.9-16.2 4.9-14.8 0-25.7-11.6-25.7-27.4 0-16 11.7-27.3 26.1-27.3 10.4 0 19.2 5.4 24.1 14.4l-33.3 28.3c3.1 2.2 6.1 3.2 9.9 3.2 5.7 0 11.3-2.5 15-7v10.9zm-3.7-36.4c-2.9-2.9-7.4-4.6-11.6-4.6-9.3 0-16.7 7.4-16.7 18 0 3.5.3 5.8 1.7 9.3l26.6-22.7zm51.8 39.7c-1.2.8-4.5 1.6-9.8 1.6-16.3 0-26.4-12.4-26.4-27.4 0-15.5 10.5-27.3 26.4-27.3 5 0 8 .8 9.8 1.7v9.6c-2-1.5-5.6-2.3-9.7-2.3-10.1 0-16.7 8-16.7 18.4 0 10.9 6.6 18.5 17.5 18.5 4.2 0 7-.8 8.9-2.1v9.3zm9.2.3v-69.5h9.8v17.5h8.5v8.9h-8.5v43.1h-9.8zm48 1.3c-14.7 0-27.7-12.5-27.7-27.2 0-15.9 12.5-27.6 28.5-27.6 14.4 0 27.9 11.3 27.7 27.8-.2 13.9-11.8 27-28.5 27zm.3-45.9c-9.8 0-18.2 8.3-18.2 18.4 0 9.9 8.2 18.5 18 18.5 10.2 0 18.6-8.1 18.6-18.6 0-10.1-8.1-18.3-18.4-18.3zm36.7 44.6v-52h9.1v4.7h.2c2.3-3.5 6.4-5.7 13.2-6.1v10.1c-8.5.3-12.8 5.4-12.8 14.2v29.2h-9.7zm100.6 0v-8.1h-.2c-3.7 6.2-10.2 9.4-17.7 9.4-15.2 0-27.6-11.5-27.6-26.5 0-16.6 11.9-28.3 27.2-28.3 7.6 0 14 2.8 18 8.7h.2v-7.3h9.8v52H880zm.1-26c0-10.1-7.3-18.6-18.1-18.6-9.8 0-17.8 8.4-17.8 18.6 0 9.8 8 18.3 17.8 18.3 10.2.1 18.1-8.4 18.1-18.3zm57.7 26v-28.4c0-11-4.3-16.2-13-16.2-8.5 0-13.7 6.3-13.7 16.1v28.5h-9.8v-52h9.1v5.5h.2c3.9-5 9.2-7 15.2-7 12.5 0 21.7 7.9 21.7 22.3v31.2h-9.7zm21.3-58.1v-11.5h9.8v11.5h-9.8zm0 58.1v-52h9.8v52h-9.8zm90.2 0V306c0-9.9-4.1-15.4-12.3-15.4-8.6 0-12.4 4.8-12.4 15.2v29.3h-9.8v-30.3c0-10.2-4.8-14.3-11.8-14.3-8.6 0-12.9 5.1-12.9 15.3V335h-9.8v-52h9v5.6h.2c4.2-5 8.2-7 14.9-7 6.8 0 13.5 3.3 16.2 8.7 3.8-5.9 8.9-8.7 17.2-8.7 13.5 0 21.2 8.5 21.2 21.9v31.6h-9.7zm63.7 0v-8.1h-.2c-3.7 6.2-10.2 9.4-17.7 9.4-15.2 0-27.6-11.5-27.6-26.5 0-16.6 11.9-28.3 27.2-28.3 7.6 0 14 2.8 18 8.7h.2v-7.3h9.8v52h-9.7zm.2-26c0-10.1-7.3-18.6-18.1-18.6-9.8 0-17.8 8.4-17.8 18.6 0 9.8 8 18.3 17.8 18.3 10.1.1 18.1-8.4 18.1-18.3zm23.2 26V292h-7v-8.9h7v-17.5h9.8v17.5h8.5v8.9h-8.5v43.1h-9.8zm24.1-58.1v-11.5h9.8v11.5h-9.8zm0 58.1v-52h9.8v52h-9.8zm46.1 1.3c-14.7 0-27.7-12.5-27.7-27.2 0-15.9 12.5-27.6 28.5-27.6 14.4 0 27.9 11.3 27.7 27.8-.3 13.9-11.9 27-28.5 27zm.2-45.9c-9.8 0-18.2 8.3-18.2 18.4 0 9.9 8.2 18.5 18 18.5 10.2 0 18.6-8.1 18.6-18.6.1-10.1-8.1-18.3-18.4-18.3zm73.2 44.6v-28.4c0-11-4.3-16.2-13-16.2-8.5 0-13.7 6.3-13.7 16.1v28.5h-9.8v-52h9.1v5.5h.2c3.9-5 9.2-7 15.2-7 12.5 0 21.7 7.9 21.7 22.3v31.2h-9.7zm42.2-38.3c-.5-3.8-2.6-6.3-6.7-6.3-3.8 0-6.1 2.5-6.1 5.5 0 4.4 4.5 5.7 9.7 7.3 7.3 2.3 14.1 6.7 14.1 16.3 0 10.1-7.3 16.6-17.5 16.6-9.4 0-18.4-6.4-18.4-18.4h9.8c.5 6.3 3.7 9.5 8.8 9.5 4.5 0 7.5-2.9 7.5-7.1 0-3.6-2.7-5.9-8.8-7.9-12.8-4-14.9-9.6-14.9-15.5 0-9.2 7.8-15.3 16.3-15.3 8.6 0 15.7 6 16 15.2h-9.8z"/>
</svg>